<svg width="135" height="34" viewBox="0 0 135 34" fill="none" xmlns="http://www.w3.org/2000/svg">
<g clip-path="url(#clip0_51_16101)">
<path d="M6.96763 0.306118C6.77039 0.503361 6.46358 0.656769 6.31017 0.656769C6.13484 0.656769 5.87185 0.854008 5.69653 1.09508C5.52121 1.33615 5.2363 1.53339 5.03906 1.53339C4.84182 1.53339 4.55692 1.73063 4.3816 1.9717C4.20627 2.21278 3.89945 2.41002 3.6803 2.41002C3.46114 2.41002 3.28582 2.49768 3.28582 2.62917C3.28582 2.73875 3.11049 2.84833 2.89134 2.84833C2.67218 2.84833 2.36536 3.04557 2.19004 3.28664C2.01471 3.52771 1.72981 3.72495 1.5764 3.72495C1.40108 3.72495 0.984679 4.03177 0.63403 4.40433L-0.0234375 5.10563L0.0423093 14.1349C0.108056 22.2217 0.151887 23.186 0.480621 23.5147C0.677861 23.712 0.962764 23.8873 1.09426 23.8873C1.24767 23.8873 1.64215 24.1722 1.97088 24.5448C2.29961 24.8954 2.71601 25.2022 2.89134 25.2022C3.04474 25.2022 3.32965 25.3995 3.50497 25.6405C3.6803 25.8816 3.9652 26.0788 4.16244 26.0788C4.35968 26.0788 4.64458 26.2761 4.81991 26.5172C4.99523 26.7582 5.28013 26.9555 5.43354 26.9555C5.60887 26.9555 6.02526 27.2404 6.354 27.6129C6.68273 27.9636 7.09913 28.2704 7.27445 28.2704C7.42786 28.2704 7.71276 28.4676 7.88809 28.7087C8.06341 28.9498 8.34832 29.147 8.50173 29.147C8.67705 29.147 9.09345 29.4319 9.42218 29.8045C9.75091 30.1551 10.1673 30.462 10.3426 30.462C10.496 30.462 10.7809 30.6592 10.9563 30.9003C11.1316 31.1413 11.4165 31.3386 11.6137 31.3386C11.811 31.3386 12.0959 31.5358 12.2712 31.7769C12.4465 32.018 12.7314 32.2152 12.8848 32.2152C13.0602 32.2152 13.4766 32.522 13.8491 32.9165C14.4628 33.574 14.5723 33.5959 16.2598 33.6178C17.509 33.6397 18.0788 33.5521 18.1227 33.3548C18.1884 33.2233 18.3637 33.0918 18.561 33.0918C18.7363 33.0918 19.1746 32.785 19.5033 32.4344C19.8321 32.0618 20.2485 31.7769 20.4238 31.7769C20.5772 31.7769 20.8621 31.5797 21.0374 31.3386C21.2128 31.0975 21.4977 30.9003 21.6511 30.9003C21.8264 30.9003 22.2428 30.5935 22.5715 30.2428C22.9003 29.8702 23.3167 29.5853 23.492 29.5853C23.6454 29.5853 23.9303 29.3881 24.1056 29.147C24.2809 28.906 24.5658 28.7087 24.7631 28.7087C24.9603 28.7087 25.2452 28.5115 25.4206 28.2704C25.5959 28.0293 25.8808 27.8321 26.0342 27.8321C26.2095 27.8321 26.6259 27.5253 26.9546 27.1746C27.2834 26.8021 27.6998 26.5172 27.8751 26.5172C28.0285 26.5172 28.3134 26.3199 28.4887 26.0788C28.6641 25.8378 28.949 25.6405 29.1024 25.6405C29.2777 25.6405 29.6941 25.3337 30.0228 24.9831C30.3516 24.6105 30.746 24.3256 30.8775 24.3256C31.0309 24.3256 31.4693 23.9749 31.8857 23.5586L32.6527 22.8134V13.9157C32.6527 8.1519 32.587 5.03989 32.4335 5.03989C32.324 5.03989 32.2144 4.84265 32.2144 4.60157C32.2144 4.31667 32.061 4.16326 31.7761 4.16326C31.535 4.16326 31.3378 4.05368 31.3378 3.94411C31.3378 3.81261 31.1624 3.72495 30.9433 3.72495C30.7241 3.72495 30.4173 3.52771 30.242 3.28664C30.0667 3.04557 29.7818 2.84833 29.5845 2.84833C29.3873 2.84833 29.1024 2.65109 28.927 2.41002C28.7517 2.16894 28.4668 1.9717 28.2696 1.9717C28.0723 1.9717 27.7874 1.77446 27.6121 1.53339C27.4368 1.29232 27.13 1.09508 26.9108 1.09508C26.6917 1.09508 26.5163 0.985504 26.5163 0.875923C26.5163 0.744431 26.3629 0.656769 26.1657 0.656769C25.9904 0.656769 25.6616 0.503361 25.4644 0.306118C25.1795 0.0212173 24.8069 -0.0226135 23.5358 0.0431328C22.0894 0.130795 21.8702 0.218456 21.2785 0.832092C20.9279 1.22657 20.5115 1.53339 20.3361 1.53339C20.1827 1.53339 19.8978 1.73063 19.7225 1.9717C19.5472 2.21278 19.2623 2.41002 19.1089 2.41002C18.9335 2.41002 18.5171 2.69492 18.1884 3.06748C17.8597 3.41813 17.4214 3.72495 17.2241 3.72495C17.0269 3.72495 16.8735 3.81261 16.8735 3.94411C16.8735 4.33859 15.6681 4.18518 15.3394 3.72495C15.1641 3.48388 14.8792 3.28664 14.6819 3.28664C14.4847 3.28664 14.1998 3.0894 14.0245 2.84833C13.8491 2.60726 13.5642 2.41002 13.4108 2.41002C13.2355 2.41002 12.8191 2.1032 12.4904 1.75255C12.1616 1.37998 11.7452 1.09508 11.6137 1.09508C11.4603 1.09508 11.1535 0.875923 10.9344 0.612938C10.3645 -0.0226135 7.51552 -0.241768 6.96763 0.306118ZM8.98387 3.06748C8.98387 3.17706 9.15919 3.28664 9.37835 3.28664C9.5975 3.28664 9.90432 3.48388 10.0796 3.72495C10.255 3.96602 10.5399 4.16326 10.7371 4.16326C10.9344 4.16326 11.2193 4.3605 11.3946 4.60157C11.5699 4.84265 11.8548 5.03989 12.052 5.03989C12.2493 5.03989 12.5342 5.23713 12.7095 5.4782C12.8848 5.71927 13.1697 5.91651 13.3232 5.91651C13.4985 5.91651 13.9149 6.20141 14.2436 6.57398C14.7915 7.1657 14.9887 7.23144 16.2598 7.23144C17.3995 7.23144 17.7063 7.14378 17.9693 6.79313C18.1446 6.55206 18.4295 6.35482 18.6267 6.35482C18.824 6.35482 19.1089 6.15758 19.2842 5.91651C19.4595 5.67544 19.7444 5.4782 19.9417 5.4782C20.1389 5.4782 20.4238 5.28096 20.5991 5.03989C20.7745 4.79881 21.0594 4.60157 21.2128 4.60157C21.3881 4.60157 21.8045 4.29476 22.1332 3.94411C22.462 3.57154 22.9003 3.28664 23.0975 3.28664C23.2947 3.28664 23.4482 3.17706 23.4482 3.06748C23.4482 2.93599 23.6454 2.84833 23.8865 2.84833C24.1275 2.84833 24.3248 2.93599 24.3248 3.06748C24.3248 3.17706 24.5001 3.28664 24.7193 3.28664C24.9384 3.28664 25.2452 3.48388 25.4206 3.72495C25.5959 3.96602 25.9027 4.16326 26.1219 4.16326C26.341 4.16326 26.5163 4.25093 26.5163 4.38242C26.5163 4.492 26.6917 4.60157 26.9108 4.60157C27.13 4.60157 27.4368 4.79881 27.6121 5.03989C27.7874 5.28096 28.0723 5.4782 28.2696 5.4782C28.4668 5.4782 28.7517 5.67544 28.927 5.91651C29.1024 6.15758 29.4092 6.35482 29.6283 6.35482C29.9571 6.35482 30.0228 6.55206 30.0228 7.66976C30.0228 9.07235 29.8694 9.24768 29.3654 8.54638C29.19 8.30531 28.9051 8.10807 28.7079 8.10807C28.5107 8.10807 28.2258 7.91083 28.0504 7.66976C27.8751 7.42868 27.5683 7.23144 27.3491 7.23144C27.13 7.23144 26.9546 7.12187 26.9546 7.01229C26.9546 6.88079 26.7793 6.79313 26.5602 6.79313C26.341 6.79313 26.0342 6.59589 25.8589 6.35482C25.5959 5.98226 25.2891 5.91651 23.8865 5.91651C22.4839 5.91651 22.177 5.98226 21.9141 6.35482C21.7387 6.59589 21.4538 6.79313 21.2566 6.79313C21.0594 6.79313 20.7745 6.99037 20.5991 7.23144C20.4238 7.47252 20.1389 7.66976 19.9855 7.66976C19.8102 7.66976 19.3938 7.95466 19.065 8.32722C18.7363 8.67787 18.3199 8.98469 18.1446 8.98469C17.9912 8.98469 17.7063 9.18193 17.5309 9.423C17.3556 9.66407 17.0488 9.86131 16.8516 9.86131C16.6324 9.86131 16.4352 9.99281 16.3694 10.1243C16.3037 10.3215 16.1283 10.2558 15.8434 9.90515C15.6024 9.64216 15.2517 9.423 15.0983 9.423C14.923 9.423 14.6381 9.22576 14.4628 8.98469C14.2874 8.74362 14.0025 8.54638 13.8053 8.54638C13.6081 8.54638 13.3232 8.34914 13.1478 8.10807C12.9725 7.867 12.6876 7.66976 12.5342 7.66976C12.3589 7.66976 11.9425 7.36294 11.6137 7.01229C11.285 6.63972 10.8467 6.35482 10.6495 6.35482C10.4522 6.35482 10.2988 6.24524 10.2988 6.13566C10.2988 6.00417 9.57559 5.91651 8.58939 5.91651C7.14296 5.91651 6.83614 5.98226 6.57315 6.35482C6.39783 6.59589 6.11293 6.79313 5.91569 6.79313C5.71845 6.79313 5.43354 6.99037 5.25822 7.23144C5.08289 7.47252 4.79799 7.66976 4.60075 7.66976C4.40351 7.66976 4.11861 7.867 3.94328 8.10807C3.76796 8.34914 3.46114 8.54638 3.24198 8.54638C3.02283 8.54638 2.8475 8.63404 2.8475 8.76554C2.8475 8.87511 2.75984 8.98469 2.62835 8.98469C2.51877 8.98469 2.40919 8.54638 2.40919 7.99849C2.40919 7.23144 2.54069 6.85888 2.95708 6.4644C3.24198 6.15758 3.61455 5.91651 3.76796 5.91651C3.94328 5.91651 4.20627 5.71927 4.3816 5.4782C4.55692 5.23713 4.84182 5.03989 5.03906 5.03989C5.2363 5.03989 5.52121 4.84265 5.69653 4.60157C5.87185 4.3605 6.15676 4.16326 6.354 4.16326C6.55124 4.16326 6.83614 3.96602 7.01147 3.72495C7.18679 3.48388 7.49361 3.28664 7.71276 3.28664C7.93192 3.28664 8.10724 3.17706 8.10724 3.06748C8.10724 2.93599 8.30448 2.84833 8.54556 2.84833C8.78663 2.84833 8.98387 2.93599 8.98387 3.06748ZM9.20302 8.98469C9.37835 9.22576 9.66325 9.423 9.86049 9.423C10.0577 9.423 10.3426 9.62024 10.518 9.86131C10.6933 10.1024 10.9782 10.2996 11.1754 10.2996C11.3727 10.2996 11.6576 10.4969 11.8329 10.7379C12.0082 10.979 12.2931 11.1762 12.4465 11.1762C12.6219 11.1762 13.0383 11.4612 13.367 11.8337C13.6957 12.1844 14.134 12.4912 14.3313 12.4912C14.5285 12.4912 14.6819 12.5788 14.6819 12.7103C14.6819 12.8418 15.3832 12.9295 16.3475 12.9295C17.9254 12.9295 18.0569 12.8857 18.6267 12.272C18.9555 11.8995 19.3719 11.6146 19.5472 11.6146C19.7006 11.6146 19.9855 11.4173 20.1608 11.1762C20.3361 10.9352 20.621 10.7379 20.7745 10.7379C20.9498 10.7379 21.3662 10.453 21.6949 10.0805C22.0236 9.7079 22.44 9.423 22.6154 9.423C22.7688 9.423 23.0537 9.22576 23.229 8.98469C23.4043 8.74362 23.6892 8.54638 23.8865 8.54638C24.0837 8.54638 24.3686 8.74362 24.5439 8.98469C24.7193 9.22576 25.0042 9.423 25.2014 9.423C25.3986 9.423 25.6835 9.62024 25.8589 9.86131C26.0342 10.1024 26.341 10.2996 26.5602 10.2996C26.7793 10.2996 26.9546 10.3873 26.9546 10.5188C26.9546 10.6284 27.13 10.7379 27.3491 10.7379C27.5683 10.7379 27.8751 10.9352 28.0504 11.1762C28.2258 11.4173 28.4887 11.6146 28.6641 11.6146C28.8175 11.6146 29.19 11.8556 29.4749 12.1625C29.9352 12.6008 30.0228 12.9076 30.0228 14.0253C30.0228 15.143 29.9352 15.4498 29.4749 15.8881C29.19 16.1949 28.8175 16.436 28.6641 16.436C28.4887 16.436 28.2258 16.6332 28.0504 16.8743C27.8751 17.1154 27.5902 17.3126 27.4368 17.3126C27.2615 17.3126 26.8451 17.5975 26.5163 17.9701C26.1876 18.3207 25.7712 18.6275 25.5959 18.6275C25.4425 18.6275 25.1576 18.8248 24.9822 19.0659C24.8069 19.3069 24.522 19.5042 24.3686 19.5042C24.1933 19.5042 23.7769 19.7891 23.4482 20.1616C23.1194 20.5123 22.703 20.8191 22.5277 20.8191C22.3743 20.8191 22.0894 21.0163 21.9141 21.2574C21.7387 21.4985 21.4538 21.6957 21.2566 21.6957C21.0594 21.6957 20.7745 21.893 20.5991 22.134C20.4238 22.3751 20.1389 22.5724 19.9855 22.5724C19.8102 22.5724 19.3938 22.8573 19.065 23.2298C18.7363 23.6024 18.3199 23.8873 18.1446 23.8873C17.9912 23.8873 17.7063 24.0845 17.5309 24.3256C17.3556 24.5667 17.0488 24.7639 16.8516 24.7639C16.6324 24.7639 16.4352 24.8954 16.3694 25.0269C16.3037 25.2241 16.1283 25.1584 15.8434 24.8297C15.6024 24.5448 15.2517 24.3256 15.0983 24.3256C14.923 24.3256 14.6381 24.1284 14.4628 23.8873C14.2874 23.6462 14.0025 23.449 13.8491 23.449C13.6738 23.449 13.2574 23.1641 12.9287 22.7915C12.5999 22.4409 12.1835 22.134 12.0082 22.134C11.8548 22.134 11.5699 21.9368 11.3946 21.6957C11.2193 21.4547 10.9344 21.2574 10.7809 21.2574C10.6056 21.2574 10.1892 20.9506 9.86049 20.5999C9.53176 20.2274 9.11536 19.9425 8.94004 19.9425C8.78663 19.9425 8.50173 19.7452 8.3264 19.5042C8.15108 19.2631 7.86617 19.0659 7.66893 19.0659C7.47169 19.0659 7.18679 18.8686 7.01147 18.6275C6.83614 18.3865 6.55124 18.1892 6.39783 18.1892C6.2225 18.1892 5.80611 17.8824 5.47737 17.5318C5.14864 17.1592 4.73224 16.8743 4.55692 16.8743C4.40351 16.8743 4.11861 16.6771 3.94328 16.436C3.76796 16.1949 3.50497 15.9977 3.32965 15.9977C2.6941 15.9977 2.40919 15.384 2.40919 14.0253C2.40919 12.6665 2.6941 12.0529 3.32965 12.0529C3.50497 12.0529 3.76796 11.8556 3.94328 11.6146C4.11861 11.3735 4.40351 11.1762 4.60075 11.1762C4.79799 11.1762 5.08289 10.979 5.25822 10.7379C5.43354 10.4969 5.71845 10.2996 5.91569 10.2996C6.11293 10.2996 6.39783 10.1024 6.57315 9.86131C6.74848 9.62024 7.03338 9.423 7.23062 9.423C7.42786 9.423 7.71276 9.22576 7.88809 8.98469C8.06341 8.74362 8.34832 8.54638 8.54556 8.54638C8.7428 8.54638 9.0277 8.74362 9.20302 8.98469ZM3.06666 19.5042C3.24198 19.7452 3.52689 19.9425 3.72413 19.9425C3.92137 19.9425 4.20627 20.1397 4.3816 20.3808C4.55692 20.6219 4.84182 20.8191 4.99523 20.8191C5.17056 20.8191 5.58695 21.104 5.91569 21.4766C6.24442 21.8272 6.66082 22.134 6.83614 22.134C6.98955 22.134 7.27445 22.3313 7.44978 22.5724C7.6251 22.8134 7.91 23.0107 8.10724 23.0107C8.30448 23.0107 8.58939 23.2079 8.76471 23.449C8.94004 23.69 9.22494 23.8873 9.37835 23.8873C9.55367 23.8873 9.97007 24.1722 10.2988 24.5448C10.6275 24.8954 11.0439 25.2022 11.2193 25.2022C11.3727 25.2022 11.6576 25.3995 11.8329 25.6405C12.0082 25.8816 12.2931 26.0788 12.4465 26.0788C12.6219 26.0788 13.0383 26.3637 13.367 26.7363C13.6957 27.087 14.134 27.3938 14.3313 27.3938C14.5285 27.3938 14.6819 27.4814 14.6819 27.6129C14.6819 27.7444 15.3832 27.8321 16.3475 27.8321C17.9254 27.8321 18.0569 27.7883 18.6267 27.1746C18.9555 26.8021 19.3719 26.5172 19.5472 26.5172C19.7006 26.5172 19.9855 26.3199 20.1608 26.0788C20.3361 25.8378 20.621 25.6405 20.8183 25.6405C21.0155 25.6405 21.3004 25.4433 21.4758 25.2022C21.6511 24.9612 21.936 24.7639 22.0894 24.7639C22.2647 24.7639 22.6811 24.479 23.0098 24.1064C23.3386 23.7558 23.755 23.449 23.9303 23.449C24.0837 23.449 24.3686 23.2517 24.5439 23.0107C24.7193 22.7696 25.0042 22.5724 25.1576 22.5724C25.3329 22.5724 25.7493 22.2655 26.078 21.9149C26.4068 21.5423 26.8232 21.2574 26.9985 21.2574C27.1519 21.2574 27.4368 21.0602 27.6121 20.8191C27.7874 20.578 28.0723 20.3808 28.2258 20.3808C28.4011 20.3808 28.8175 20.0959 29.1462 19.7233C29.4749 19.3727 29.8256 19.0659 29.8913 19.0659C29.9571 19.0659 30.0228 19.6576 30.0228 20.3808C30.0228 21.4985 29.9571 21.6957 29.6283 21.6957C29.4092 21.6957 29.1024 21.893 28.927 22.134C28.7517 22.3751 28.4668 22.5724 28.2696 22.5724C28.0723 22.5724 27.7874 22.7696 27.6121 23.0107C27.4368 23.2517 27.1519 23.449 26.9985 23.449C26.8232 23.449 26.4068 23.7339 26.078 24.1064C25.7493 24.4571 25.3329 24.7639 25.1576 24.7639C25.0042 24.7639 24.7193 24.9612 24.5439 25.2022C24.3686 25.4433 24.0837 25.6405 23.9303 25.6405C23.755 25.6405 23.3386 25.9254 23.0098 26.298C22.6811 26.6487 22.2647 26.9555 22.0894 26.9555C21.936 26.9555 21.6511 27.1527 21.4758 27.3938C21.3004 27.6349 21.0155 27.8321 20.8621 27.8321C20.6868 27.8321 20.2704 28.117 19.9417 28.4896C19.6129 28.8402 19.1965 29.147 19.0212 29.147C18.8678 29.147 18.5829 29.3443 18.4076 29.5853C18.2322 29.8264 17.9473 30.0237 17.7501 30.0237C17.5529 30.0237 17.268 30.2209 17.0926 30.462C16.7639 30.9222 15.9969 31.0756 15.9969 30.6811C15.9969 30.5496 15.8215 30.462 15.6024 30.462C15.3832 30.462 15.0764 30.2647 14.9011 30.0237C14.7258 29.7826 14.4408 29.5853 14.2874 29.5853C14.1121 29.5853 13.6957 29.2785 13.367 28.9279C13.0383 28.5553 12.6219 28.2704 12.4465 28.2704C12.2931 28.2704 12.0082 28.0732 11.8329 27.8321C11.6576 27.591 11.3727 27.3938 11.1754 27.3938C10.9782 27.3938 10.6933 27.1965 10.518 26.9555C10.3426 26.7144 10.0577 26.5172 9.90432 26.5172C9.729 26.5172 9.3126 26.2103 8.98387 25.8597C8.65513 25.4871 8.23874 25.2022 8.06341 25.2022C7.91 25.2022 7.6251 25.005 7.44978 24.7639C7.27445 24.5228 6.98955 24.3256 6.83614 24.3256C6.66082 24.3256 6.24442 24.0188 5.91569 23.6681C5.58695 23.2956 5.17056 23.0107 4.99523 23.0107C4.84182 23.0107 4.55692 22.8134 4.3816 22.5724C4.20627 22.3313 3.94328 22.134 3.76796 22.134C3.61455 22.134 3.24198 21.893 2.95708 21.5862C2.54069 21.1917 2.40919 20.8191 2.40919 20.0521C2.40919 18.9782 2.58452 18.8248 3.06666 19.5042Z" fill="white"/>
<path d="M59.3888 4.38302C59.3888 4.4926 59.1039 4.60217 58.7313 4.60217C58.3807 4.60217 58.0739 4.68983 58.0739 4.82133C58.0739 4.93091 57.8766 5.04049 57.6356 5.04049C57.3945 5.04049 57.1972 5.12815 57.1972 5.25964C57.1972 5.36922 57.0219 5.4788 56.8028 5.4788C56.5836 5.4788 56.2768 5.67604 56.1015 5.91711C55.9261 6.15818 55.6631 6.35542 55.4878 6.35542C55.1153 6.35542 54.5674 6.90331 54.5674 7.27587C54.5674 7.4512 54.3701 7.71419 54.1291 7.88951C53.888 8.06483 53.6907 8.37165 53.6907 8.59081C53.6907 8.80997 53.6031 8.98529 53.4716 8.98529C53.362 8.98529 53.2524 9.18253 53.2524 9.4236C53.2524 9.66467 53.1648 9.86191 53.0333 9.86191C52.9237 9.86191 52.8141 10.1468 52.8141 10.5194C52.8141 10.87 52.7265 11.1768 52.595 11.1768C52.4854 11.1768 52.3758 11.4618 52.3758 11.8343C52.3758 12.448 52.4196 12.4918 53.2524 12.4918C53.7346 12.4918 54.1291 12.5794 54.1291 12.7109C54.1291 12.8424 54.8961 12.9301 56.0138 12.9301C57.9424 12.9301 58.5122 12.7109 58.5122 11.9658C58.5122 11.7686 58.6218 11.6152 58.7313 11.6152C58.8628 11.6152 58.9505 11.4618 58.9505 11.2864C58.9505 10.7166 60.3969 9.4236 61.0325 9.4236C61.3393 9.4236 61.5804 9.31402 61.5804 9.20444C61.5804 9.07295 62.2378 8.98529 63.1144 8.98529C63.9911 8.98529 64.6485 9.07295 64.6485 9.20444C64.6485 9.31402 64.8458 9.4236 65.0869 9.4236C65.3279 9.4236 65.5252 9.51126 65.5252 9.64276C65.5252 9.75233 65.6786 9.86191 65.8758 9.86191C66.3141 9.86191 66.8401 10.3879 66.8401 10.8262C66.8401 11.0234 66.9497 11.1768 67.0593 11.1768C67.1907 11.1768 67.2784 11.3741 67.2784 11.6152C67.2784 11.8562 67.388 12.0535 67.4976 12.0535C67.6291 12.0535 67.7167 12.448 67.7167 12.9301V13.8067H66.4018C65.6786 13.8067 65.0869 13.8944 65.0869 14.0259C65.0869 14.1355 64.6047 14.245 63.9911 14.245C63.3994 14.245 62.8953 14.3327 62.8953 14.4642C62.8953 14.5738 62.4131 14.6833 61.7995 14.6833C61.2078 14.6833 60.7037 14.771 60.7037 14.9025C60.7037 15.0121 60.2216 15.1217 59.608 15.1217C59.0162 15.1217 58.5122 15.2093 58.5122 15.3408C58.5122 15.4504 58.2273 15.56 57.8547 15.56C57.5041 15.56 57.1972 15.6476 57.1972 15.7791C57.1972 15.8887 56.9123 15.9983 56.5398 15.9983C56.1891 15.9983 55.8823 16.0859 55.8823 16.2174C55.8823 16.327 55.7289 16.4366 55.5536 16.4366C55.1153 16.4366 52.8141 18.7377 52.8141 19.176C52.8141 19.3514 52.7265 19.5048 52.595 19.5048C52.4854 19.5048 52.3758 19.7897 52.3758 20.1622C52.3758 20.5129 52.2881 20.8197 52.1567 20.8197C52.0252 20.8197 51.9375 21.5429 51.9375 22.573C51.9375 23.603 52.0252 24.3262 52.1567 24.3262C52.2881 24.3262 52.3758 24.6988 52.3758 25.159C52.3758 25.7288 52.5073 26.0794 52.8141 26.2986C53.0552 26.4739 53.2524 26.7369 53.2524 26.9122C53.2524 27.3067 54.2606 28.271 54.6769 28.271C54.8523 28.271 55.0057 28.3587 55.0057 28.4902C55.0057 28.5997 55.2029 28.7093 55.444 28.7093C55.6851 28.7093 55.8823 28.797 55.8823 28.9285C55.8823 29.038 56.1891 29.1476 56.5398 29.1476C56.9123 29.1476 57.1972 29.2353 57.1972 29.3668C57.1972 29.4983 58.4464 29.5859 60.4846 29.5859C62.5227 29.5859 63.7719 29.4983 63.7719 29.3668C63.7719 29.2353 64.0787 29.1476 64.4294 29.1476C64.8019 29.1476 65.0869 29.038 65.0869 28.9285C65.0869 28.797 65.2841 28.7093 65.5252 28.7093C65.7662 28.7093 65.9635 28.5997 65.9635 28.4902C65.9635 28.3587 66.1169 28.271 66.3141 28.271C66.4894 28.271 67.0373 27.8765 67.4976 27.3944C68.4619 26.4082 68.5933 26.3424 68.5933 26.9561C68.5933 27.1971 68.7029 27.3944 68.8125 27.3944C68.944 27.3944 69.0317 27.5916 69.0317 27.8327C69.0317 28.1176 69.1851 28.271 69.4261 28.271C69.6453 28.271 69.9521 28.4682 70.1274 28.7093C70.4123 29.1038 70.6972 29.1476 73.0203 29.1476H75.6063V26.7369V24.3262H74.5106H73.4148V17.9707C73.4148 13.8725 73.3271 11.6152 73.1956 11.6152C73.086 11.6152 72.9765 11.2207 72.9765 10.7385C72.9765 10.2564 72.8888 9.86191 72.7573 9.86191C72.6477 9.86191 72.5381 9.57701 72.5381 9.24828C72.5381 8.89763 72.3628 8.50315 72.0998 8.32782C71.8588 8.1525 71.6615 7.88951 71.6615 7.7361C71.6615 7.31971 69.7768 5.4788 69.3604 5.4788C69.1851 5.4788 69.0317 5.36922 69.0317 5.25964C69.0317 5.12815 68.8344 5.04049 68.5933 5.04049C68.3523 5.04049 68.155 4.93091 68.155 4.82133C68.155 4.68983 67.8701 4.60217 67.4976 4.60217C67.1469 4.60217 66.8401 4.4926 66.8401 4.38302C66.8401 4.25152 65.4594 4.16386 63.1144 4.16386C60.7695 4.16386 59.3888 4.25152 59.3888 4.38302ZM67.7167 19.5048C67.7167 20.228 67.6291 20.8197 67.4976 20.8197C67.388 20.8197 67.2784 21.0169 67.2784 21.258C67.2784 21.4991 67.1907 21.6963 67.0593 21.6963C66.9497 21.6963 66.8401 21.8497 66.8401 22.0251C66.8401 22.4634 65.4156 23.8879 64.9773 23.8879C64.8019 23.8879 64.6485 23.9755 64.6485 24.107C64.6485 24.2166 64.4513 24.3262 64.2102 24.3262C63.9692 24.3262 63.7719 24.4139 63.7719 24.5454C63.7719 24.6549 63.3774 24.7645 62.8953 24.7645C62.4131 24.7645 62.0187 24.8522 62.0187 24.9837C62.0187 25.0932 61.7338 25.2028 61.3612 25.2028C61.0106 25.2028 60.7037 25.0932 60.7037 24.9837C60.7037 24.8522 60.4188 24.7645 60.0463 24.7645C59.6956 24.7645 59.3888 24.6549 59.3888 24.5454C59.3888 24.4139 59.1916 24.3262 58.9505 24.3262C58.6656 24.3262 58.5122 24.1728 58.5122 23.8879C58.5122 23.6468 58.4245 23.4496 58.293 23.4496C58.1834 23.4496 58.0739 23.2523 58.0739 23.0332C58.0739 22.7921 57.9424 22.551 57.8109 22.4853C57.5917 22.3757 57.5917 22.3319 57.8109 22.2223C57.9424 22.1566 58.0739 21.8497 58.0739 21.5429C58.0739 20.9293 58.5341 20.3814 59.0381 20.3814C59.2354 20.3814 59.3888 20.2718 59.3888 20.1622C59.3888 20.0307 59.586 19.9431 59.8271 19.9431C60.0682 19.9431 60.2654 19.8335 60.2654 19.7239C60.2654 19.5924 60.6599 19.5048 61.142 19.5048C61.6242 19.5048 62.0187 19.3952 62.0187 19.2856C62.0187 19.1541 62.5227 19.0665 63.1144 19.0665C63.7281 19.0665 64.2102 18.9569 64.2102 18.8473C64.2102 18.7158 64.7143 18.6281 65.306 18.6281C65.9196 18.6281 66.4018 18.5186 66.4018 18.409C66.4018 18.2775 66.7086 18.1898 67.0593 18.1898H67.7167V19.5048Z" fill="white"/>
<path d="M104.538 4.38302C104.538 4.4926 104.253 4.60217 103.881 4.60217C103.53 4.60217 103.223 4.68983 103.223 4.82133C103.223 4.93091 103.026 5.04049 102.785 5.04049C102.544 5.04049 102.346 5.12815 102.346 5.25964C102.346 5.36922 102.171 5.4788 101.952 5.4788C101.733 5.4788 101.426 5.67604 101.251 5.91711C101.075 6.15818 100.812 6.35542 100.637 6.35542C100.265 6.35542 99.2783 7.34162 99.2783 7.71419C99.2783 7.88951 99.0811 8.1525 98.84 8.32782C98.5989 8.50315 98.4017 8.80997 98.4017 9.02912C98.4017 9.24828 98.314 9.4236 98.1825 9.4236C98.073 9.4236 97.9634 9.62084 97.9634 9.86191C97.9634 10.103 97.8757 10.3002 97.7442 10.3002C97.6346 10.3002 97.5251 10.4975 97.5251 10.7385C97.5251 10.9796 97.4374 11.1768 97.3059 11.1768C97.1963 11.1768 97.0867 11.4618 97.0867 11.8343C97.0867 12.185 96.9991 12.4918 96.8676 12.4918C96.7361 12.4918 96.6484 14.0259 96.6484 16.6557C96.6484 19.2856 96.7361 20.8197 96.8676 20.8197C96.9991 20.8197 97.0867 21.2142 97.0867 21.6963C97.0867 22.1785 97.1963 22.573 97.3059 22.573C97.4374 22.573 97.5251 22.7702 97.5251 23.0113C97.5251 23.2523 97.6346 23.4496 97.7442 23.4496C97.8757 23.4496 97.9634 23.6468 97.9634 23.8879C97.9634 24.129 98.073 24.3262 98.1825 24.3262C98.314 24.3262 98.4017 24.5015 98.4017 24.7207C98.4017 24.9398 98.5989 25.2467 98.84 25.422C99.0811 25.5973 99.2783 25.8603 99.2783 26.0356C99.2783 26.4082 99.8043 26.9561 100.155 26.9561C100.308 26.9561 100.703 27.241 101.032 27.6135C101.36 27.9642 101.799 28.271 101.996 28.271C102.193 28.271 102.346 28.3587 102.346 28.4902C102.346 28.5997 102.544 28.7093 102.785 28.7093C103.026 28.7093 103.223 28.797 103.223 28.9285C103.223 29.038 103.53 29.1476 103.881 29.1476C104.253 29.1476 104.538 29.2353 104.538 29.3668C104.538 29.4983 105.853 29.5859 108.045 29.5859C110.236 29.5859 111.551 29.4983 111.551 29.3668C111.551 29.2353 111.858 29.1476 112.209 29.1476C112.581 29.1476 112.866 29.038 112.866 28.9285C112.866 28.797 113.063 28.7093 113.304 28.7093C113.545 28.7093 113.743 28.5997 113.743 28.4902C113.743 28.3587 113.94 28.271 114.181 28.271C114.422 28.271 114.619 28.1614 114.619 28.0518C114.619 27.9204 114.773 27.8327 114.948 27.8327C115.364 27.8327 117.249 25.9918 117.249 25.5754C117.249 25.422 117.446 25.159 117.687 24.9837C117.928 24.8083 118.126 24.5015 118.126 24.2824C118.126 24.0632 118.235 23.8879 118.345 23.8879C118.476 23.8879 118.564 23.5811 118.564 23.2304C118.564 22.8579 118.674 22.573 118.783 22.573C118.915 22.573 119.002 22.2661 119.002 21.9155V21.258H115.934C113.019 21.258 112.866 21.2799 112.866 21.6963C112.866 21.9374 112.778 22.1346 112.647 22.1346C112.537 22.1346 112.428 22.288 112.428 22.4634C112.428 22.9017 111.441 23.8879 111.003 23.8879C110.828 23.8879 110.674 23.9755 110.674 24.107C110.674 24.2166 110.39 24.3262 110.017 24.3262C109.666 24.3262 109.359 24.4139 109.359 24.5454C109.359 24.6768 108.768 24.7645 108.045 24.7645C107.321 24.7645 106.73 24.6768 106.73 24.5454C106.73 24.4139 106.445 24.3262 106.116 24.3262C105.765 24.3262 105.371 24.1509 105.196 23.8879C105.02 23.6468 104.713 23.4496 104.494 23.4496C104.253 23.4496 104.1 23.2962 104.1 23.0551C104.1 22.8359 103.902 22.5291 103.661 22.3538C103.42 22.1785 103.223 21.8717 103.223 21.6525C103.223 21.4333 103.135 21.258 103.004 21.258C102.894 21.258 102.785 20.9512 102.785 20.6005C102.785 20.228 102.697 19.9431 102.566 19.9431C102.456 19.9431 102.346 19.6363 102.346 19.2856V18.6281H110.894H119.441V17.0941C119.441 16.2174 119.353 15.56 119.221 15.56C119.09 15.56 119.002 14.9025 119.002 14.0259C119.002 13.1493 118.915 12.4918 118.783 12.4918C118.674 12.4918 118.564 12.0973 118.564 11.6152C118.564 11.133 118.476 10.7385 118.345 10.7385C118.235 10.7385 118.126 10.5413 118.126 10.3002C118.126 10.0592 118.038 9.86191 117.907 9.86191C117.797 9.86191 117.687 9.66467 117.687 9.4236C117.687 9.18253 117.6 8.98529 117.468 8.98529C117.359 8.98529 117.249 8.83188 117.249 8.65656C117.249 8.24016 114.97 5.91711 114.553 5.91711C114.4 5.91711 114.137 5.71987 113.962 5.4788C113.786 5.23772 113.48 5.04049 113.26 5.04049C113.041 5.04049 112.866 4.93091 112.866 4.82133C112.866 4.68983 112.471 4.60217 111.989 4.60217C111.507 4.60217 111.113 4.4926 111.113 4.38302C111.113 4.25152 109.864 4.16386 107.825 4.16386C105.787 4.16386 104.538 4.25152 104.538 4.38302ZM109.359 9.20444C109.359 9.31402 109.601 9.4236 109.907 9.4236C110.543 9.4236 112.428 11.1549 112.428 11.7247C112.428 11.9001 112.537 12.0535 112.647 12.0535C112.778 12.0535 112.866 12.3384 112.866 12.7109C112.866 13.0616 112.976 13.3684 113.085 13.3684C113.217 13.3684 113.304 13.5656 113.304 13.8067C113.304 14.2231 113.151 14.245 107.825 14.245C102.5 14.245 102.346 14.2231 102.346 13.8067C102.346 13.5656 102.456 13.3684 102.566 13.3684C102.697 13.3684 102.785 13.1712 102.785 12.9301C102.785 12.689 102.894 12.4918 103.004 12.4918C103.135 12.4918 103.223 12.3165 103.223 12.0973C103.223 11.8781 103.42 11.5713 103.661 11.396C103.902 11.2207 104.1 10.9139 104.1 10.6947C104.1 10.4536 104.253 10.3002 104.494 10.3002C104.713 10.3002 105.02 10.103 105.196 9.86191C105.371 9.59893 105.765 9.4236 106.116 9.4236C106.445 9.4236 106.73 9.31402 106.73 9.20444C106.73 9.07295 107.321 8.98529 108.045 8.98529C108.768 8.98529 109.359 9.07295 109.359 9.20444Z" fill="white"/>
<path d="M38.7891 16.8757V29.1484H41.6381H44.4871V21.0397C44.4871 15.7799 44.5748 12.9309 44.7063 12.9309C44.8378 12.9309 44.9254 12.6898 44.9254 12.383C44.9254 11.7475 46.2184 10.301 46.7883 10.301C46.9636 10.301 47.117 10.1915 47.117 10.0819C47.117 9.95039 48.0594 9.86272 49.5277 9.86272H51.9384V7.23285V4.60298H49.5277C48.0594 4.60298 47.117 4.69065 47.117 4.82214C47.117 4.93172 46.854 5.0413 46.5472 5.0413C46.1746 5.0413 45.6925 5.34811 45.1446 5.91792C44.6844 6.40006 44.246 6.79454 44.1803 6.79454C44.1145 6.79454 44.0488 6.29048 44.0488 5.69876V4.60298H41.4189H38.7891V16.8757Z" fill="white"/>
<path d="M73.4141 5.26045C73.4141 5.6111 73.5236 5.91792 73.6332 5.91792C73.7647 5.91792 73.8524 6.20282 73.8524 6.57539C73.8524 6.92603 73.962 7.23285 74.0715 7.23285C74.203 7.23285 74.2907 7.51776 74.2907 7.89032C74.2907 8.24097 74.4003 8.54779 74.5098 8.54779C74.6413 8.54779 74.729 8.74503 74.729 8.9861C74.729 9.22717 74.8386 9.42441 74.9482 9.42441C75.0796 9.42441 75.1673 9.70931 75.1673 10.0819C75.1673 10.4325 75.2769 10.7393 75.3865 10.7393C75.518 10.7393 75.6056 11.0242 75.6056 11.3968C75.6056 11.7475 75.7152 12.0543 75.8248 12.0543C75.9563 12.0543 76.0439 12.3392 76.0439 12.7117C76.0439 13.0624 76.1535 13.3692 76.2631 13.3692C76.3946 13.3692 76.4822 13.5665 76.4822 13.8075C76.4822 14.0486 76.5918 14.2458 76.7014 14.2458C76.8329 14.2458 76.9206 14.5307 76.9206 14.9033C76.9206 15.254 77.0301 15.5608 77.1397 15.5608C77.2712 15.5608 77.3589 15.8457 77.3589 16.2182C77.3589 16.5689 77.4684 16.8757 77.578 16.8757C77.7095 16.8757 77.7972 17.1606 77.7972 17.5332C77.7972 17.8838 77.9068 18.1906 78.0163 18.1906C78.1478 18.1906 78.2355 18.3879 78.2355 18.629C78.2355 18.87 78.3451 19.0673 78.4546 19.0673C78.5861 19.0673 78.6738 19.3522 78.6738 19.7247C78.6738 20.0754 78.7834 20.3822 78.893 20.3822C79.0245 20.3822 79.1121 20.6671 79.1121 21.0397C79.1121 21.3903 79.2217 21.6971 79.3313 21.6971C79.4628 21.6971 79.5504 21.982 79.5504 22.3546C79.5504 22.7053 79.66 23.0121 79.7696 23.0121C79.9011 23.0121 79.9887 23.2093 79.9887 23.4504C79.9887 23.6915 80.0983 23.8887 80.2079 23.8887C80.3394 23.8887 80.427 24.1736 80.427 24.5462C80.427 24.8968 80.5366 25.2036 80.6462 25.2036C80.7777 25.2036 80.8654 25.4885 80.8654 25.8611C80.8654 26.2117 80.9749 26.5186 81.0845 26.5186C81.216 26.5186 81.3037 26.8035 81.3037 27.176C81.3037 27.5267 81.4133 27.8335 81.5228 27.8335C81.6543 27.8335 81.742 27.9869 81.742 28.1842C81.742 29.0169 82.246 29.1484 85.5553 29.1484C88.6016 29.1484 88.755 29.1265 88.755 28.7101C88.755 28.4691 88.8645 28.2718 88.9741 28.2718C89.1056 28.2718 89.1933 27.965 89.1933 27.6143C89.1933 27.2418 89.3029 26.9569 89.4124 26.9569C89.5439 26.9569 89.6316 26.7596 89.6316 26.5186C89.6316 26.2775 89.7412 26.0803 89.8508 26.0803C89.9822 26.0803 90.0699 25.7734 90.0699 25.4228C90.0699 25.0502 90.1795 24.7653 90.2891 24.7653C90.4206 24.7653 90.5082 24.4585 90.5082 24.1079C90.5082 23.7353 90.6178 23.4504 90.7274 23.4504C90.8589 23.4504 90.9465 23.1436 90.9465 22.7929C90.9465 22.4204 91.0561 22.1355 91.1657 22.1355C91.2972 22.1355 91.3848 21.9382 91.3848 21.6971C91.3848 21.4561 91.4944 21.2588 91.604 21.2588C91.7355 21.2588 91.8232 20.952 91.8232 20.6014C91.8232 20.2288 91.9327 19.9439 92.0423 19.9439C92.1738 19.9439 92.2615 19.6371 92.2615 19.2864C92.2615 18.9139 92.371 18.629 92.4806 18.629C92.6121 18.629 92.6998 18.4317 92.6998 18.1906C92.6998 17.9496 92.8094 17.7523 92.9189 17.7523C93.0504 17.7523 93.1381 17.4455 93.1381 17.0949C93.1381 16.7223 93.2477 16.4374 93.3572 16.4374C93.4887 16.4374 93.5764 16.1306 93.5764 15.7799C93.5764 15.4074 93.686 15.1225 93.7956 15.1225C93.927 15.1225 94.0147 14.8156 94.0147 14.465C94.0147 14.0924 94.1243 13.8075 94.2339 13.8075C94.3654 13.8075 94.453 13.6103 94.453 13.3692C94.453 13.1281 94.5626 12.9309 94.6722 12.9309C94.8037 12.9309 94.8913 12.6241 94.8913 12.2734C94.8913 11.9009 95.0009 11.616 95.1105 11.616C95.242 11.616 95.3296 11.3092 95.3296 10.9585C95.3296 10.5859 95.4392 10.301 95.5488 10.301C95.6803 10.301 95.768 9.99422 95.768 9.64357C95.768 9.271 95.8775 8.9861 95.9871 8.9861C96.1186 8.9861 96.2063 8.78886 96.2063 8.54779C96.2063 8.30672 96.3158 8.10948 96.4254 8.10948C96.5569 8.10948 96.6446 7.80266 96.6446 7.45201C96.6446 7.07944 96.7542 6.79454 96.8637 6.79454C96.9952 6.79454 97.0829 6.48772 97.0829 6.13707C97.0829 5.76451 97.1925 5.47961 97.302 5.47961C97.4335 5.47961 97.5212 5.28237 97.5212 5.04129C97.5212 4.6249 97.3678 4.60298 94.5407 4.60298C91.3191 4.60298 90.9465 4.73448 90.9465 5.78642C90.9465 6.09324 90.8589 6.35623 90.7274 6.35623C90.6178 6.35623 90.5082 6.64113 90.5082 7.0137C90.5082 7.36435 90.4206 7.67116 90.2891 7.67116C90.1795 7.67116 90.0699 7.95607 90.0699 8.32863C90.0699 8.67928 89.9822 8.9861 89.8508 8.9861C89.7412 8.9861 89.6316 9.271 89.6316 9.64357C89.6316 9.99422 89.5439 10.301 89.4124 10.301C89.3029 10.301 89.1933 10.5859 89.1933 10.9585C89.1933 11.3092 89.1056 11.616 88.9741 11.616C88.8645 11.616 88.755 11.9009 88.755 12.2734C88.755 12.6241 88.6673 12.9309 88.5358 12.9309C88.4262 12.9309 88.3167 13.2158 88.3167 13.5884C88.3167 13.939 88.229 14.2458 88.0975 14.2458C87.9879 14.2458 87.8783 14.5307 87.8783 14.9033C87.8783 15.254 87.7907 15.5608 87.6592 15.5608C87.5496 15.5608 87.44 15.8457 87.44 16.2182C87.44 16.5689 87.3524 16.8757 87.2209 16.8757C87.1113 16.8757 87.0017 17.1606 87.0017 17.5332C87.0017 17.8838 86.9141 18.1906 86.7826 18.1906C86.673 18.1906 86.5634 18.4755 86.5634 18.8481C86.5634 19.1988 86.4758 19.5056 86.3443 19.5056C86.2347 19.5056 86.1251 19.7905 86.1251 20.163C86.1251 20.5137 86.0374 20.8205 85.9059 20.8205C85.7964 20.8205 85.6868 21.0178 85.6868 21.2588C85.6868 21.4999 85.621 21.6971 85.5553 21.6971C85.2485 21.6971 84.8102 21.0178 84.8102 20.5137C84.8102 20.2069 84.7225 19.9439 84.591 19.9439C84.4814 19.9439 84.3719 19.6371 84.3719 19.2864C84.3719 18.9139 84.2842 18.629 84.1527 18.629C84.0431 18.629 83.9335 18.3221 83.9335 17.9715C83.9335 17.5989 83.8459 17.314 83.7144 17.314C83.6048 17.314 83.4952 17.0072 83.4952 16.6566C83.4952 16.284 83.4076 15.9991 83.2761 15.9991C83.1665 15.9991 83.0569 15.6923 83.0569 15.3416C83.0569 14.9691 82.9693 14.6842 82.8378 14.6842C82.7282 14.6842 82.6186 14.3773 82.6186 14.0267C82.6186 13.6541 82.5309 13.3692 82.3995 13.3692C82.2899 13.3692 82.1803 13.0624 82.1803 12.7117C82.1803 12.3392 82.0926 12.0543 81.9611 12.0543C81.8516 12.0543 81.742 11.7475 81.742 11.3968C81.742 11.0242 81.6543 10.7393 81.5228 10.7393C81.4133 10.7393 81.3037 10.5421 81.3037 10.301C81.3037 10.06 81.216 9.86272 81.0845 9.86272C80.9749 9.86272 80.8654 9.5559 80.8654 9.20526C80.8654 8.83269 80.7777 8.54779 80.6462 8.54779C80.5366 8.54779 80.427 8.24097 80.427 7.89032C80.427 7.51776 80.3394 7.23285 80.2079 7.23285C80.0983 7.23285 79.9887 6.92603 79.9887 6.57539C79.9887 6.20282 79.9011 5.91792 79.7696 5.91792C79.66 5.91792 79.5504 5.6111 79.5504 5.26045V4.60298H76.4822H73.4141V5.26045Z" fill="white"/>
<path d="M122.07 16.8757V29.1484H124.919H127.768V20.8205C127.768 15.4074 127.856 12.4926 127.988 12.4926C128.119 12.4926 128.207 12.3392 128.207 12.1639C128.207 11.7255 129.631 10.301 130.07 10.301C130.245 10.301 130.398 10.1915 130.398 10.0819C130.398 9.95039 131.319 9.86272 132.699 9.86272H135.001V7.23285V4.60298H132.699C131.319 4.60298 130.398 4.69065 130.398 4.82214C130.398 4.93172 130.135 5.04129 129.828 5.04129C129.456 5.04129 128.974 5.34811 128.426 5.91792C127.966 6.40006 127.527 6.79454 127.462 6.79454C127.396 6.79454 127.33 6.29048 127.33 5.69876V4.60298H124.7H122.07V16.8757Z" fill="white"/>
</g>
<defs>
<clipPath id="clip0_51_16101">
<rect width="135" height="33.75" fill="white"/>
</clipPath>
</defs>
</svg>
